<svg width="30" height="30" viewBox="0 0 30 30" fill="none" xmlns="http://www.w3.org/2000/svg">
<path d="M14.9967 0.231539C8.94501 0.231539 3.19835 -0.306795 1.00335 5.32654C0.0966827 7.65321 0.22835 10.6749 0.22835 15.0015C0.22835 18.7982 0.106683 22.3665 1.00335 24.6749C3.19335 30.3115 8.98668 29.7715 14.9933 29.7715C20.7883 29.7715 26.7633 30.3749 28.985 24.6749C29.8933 22.3249 29.76 19.3482 29.76 15.0015C29.76 9.23154 30.0783 5.50654 27.28 2.70987C24.4467 -0.123462 20.615 0.231539 14.99 0.231539H14.9967ZM13.6733 2.89321C26.2967 2.87321 27.9033 1.46987 27.0167 20.9649C26.7017 27.8599 21.4517 27.1032 14.9983 27.1032C3.23168 27.1032 2.89335 26.7665 2.89335 14.9949C2.89335 3.08654 3.82668 2.89987 13.6733 2.88987V2.89321ZM22.88 5.34487C21.9017 5.34487 21.1083 6.13821 21.1083 7.11654C21.1083 8.09487 21.9017 8.88821 22.88 8.88821C23.8583 8.88821 24.6517 8.09487 24.6517 7.11654C24.6517 6.13821 23.8583 5.34487 22.88 5.34487ZM14.9967 7.41654C10.8083 7.41654 7.41335 10.8132 7.41335 15.0015C7.41335 19.1899 10.8083 22.5849 14.9967 22.5849C19.185 22.5849 22.5783 19.1899 22.5783 15.0015C22.5783 10.8132 19.185 7.41654 14.9967 7.41654ZM14.9967 10.0782C21.505 10.0782 21.5133 19.9249 14.9967 19.9249C8.49002 19.9249 8.48001 10.0782 14.9967 10.0782Z" fill="white"/>
</svg>
